<svg xmlns="http://www.w3.org/2000/svg" width="30" height="30" viewBox="0 0 30 30" fill="none">
<path fill-rule="evenodd" clip-rule="evenodd" d="M5.60366 2.3235C5.75872 1.66302 6.13713 1.07369 6.67711 0.651691C7.21709 0.229695 7.88675 -3.53674e-05 8.57678 4.08398e-09H21.4221C22.8423 4.08398e-09 24.0761 0.963 24.3953 2.3235L25.9574 8.97C27.4661 15.396 22.9629 21.552 16.5234 22.401C16.5256 22.434 16.5266 22.467 16.5265 22.5V27H21.1076C21.5126 27 21.901 27.158 22.1874 27.4393C22.4737 27.7206 22.6346 28.1022 22.6346 28.5C22.6346 28.8978 22.4737 29.2794 22.1874 29.5607C21.901 29.842 21.5126 30 21.1076 30H8.89135C8.48636 30 8.09795 29.842 7.81158 29.5607C7.5252 29.2794 7.36432 28.8978 7.36432 28.5C7.36432 28.1022 7.5252 27.7206 7.81158 27.4393C8.09795 27.158 8.48636 27 8.89135 27H13.4724V22.5C13.4724 22.467 13.4724 22.434 13.4755 22.401C7.03754 21.552 2.5328 15.396 4.04303 8.97L5.60366 2.3235ZM8.57983 3L7.01768 9.645C5.83424 14.685 9.73274 19.5 14.9995 19.5C20.2677 19.5 24.1662 14.6865 22.9812 9.645L21.4206 3H8.57831H8.57983Z" fill="#A20025"/>
</svg>